<svg xmlns="http://www.w3.org/2000/svg" xmlns:xlink="http://www.w3.org/1999/xlink" width="1920" zoomAndPan="magnify" viewBox="0 0 1440 809.999993" height="1080" preserveAspectRatio="xMidYMid meet" version="1.0"><defs><g/></defs><path fill="#ffffff" d="M 397.132812 435.453125 C 397.132812 436.457031 397.082031 437.457031 396.984375 438.457031 C 396.886719 439.457031 396.738281 440.445312 396.542969 441.429688 C 396.347656 442.414062 396.105469 443.386719 395.8125 444.347656 C 395.519531 445.308594 395.183594 446.25 394.800781 447.179688 C 394.414062 448.105469 393.988281 449.011719 393.515625 449.894531 C 393.042969 450.78125 392.527344 451.640625 391.96875 452.476562 C 391.410156 453.308594 390.8125 454.113281 390.175781 454.890625 C 389.539062 455.664062 388.867188 456.410156 388.160156 457.117188 C 387.449219 457.828125 386.707031 458.5 385.929688 459.136719 C 385.15625 459.773438 384.351562 460.371094 383.515625 460.929688 C 382.679688 461.484375 381.820312 462 380.9375 462.472656 C 380.050781 462.945312 379.144531 463.375 378.21875 463.757812 C 377.292969 464.144531 376.347656 464.480469 375.386719 464.773438 C 374.425781 465.0625 373.457031 465.308594 372.472656 465.503906 C 371.488281 465.699219 370.496094 465.847656 369.496094 465.945312 C 368.5 466.042969 367.496094 466.089844 366.492188 466.089844 C 365.492188 466.089844 364.488281 466.042969 363.492188 465.945312 C 362.492188 465.847656 361.5 465.699219 360.515625 465.503906 C 359.53125 465.308594 358.558594 465.0625 357.601562 464.773438 C 356.640625 464.480469 355.695312 464.144531 354.769531 463.757812 C 353.84375 463.375 352.9375 462.945312 352.050781 462.472656 C 351.167969 462 350.308594 461.484375 349.472656 460.929688 C 348.636719 460.371094 347.832031 459.773438 347.058594 459.136719 C 346.28125 458.5 345.539062 457.828125 344.828125 457.117188 C 344.121094 456.410156 343.445312 455.664062 342.808594 454.890625 C 342.175781 454.113281 341.578125 453.308594 341.019531 452.476562 C 340.460938 451.640625 339.945312 450.78125 339.472656 449.894531 C 339 449.011719 338.570312 448.105469 338.1875 447.179688 C 337.804688 446.25 337.464844 445.308594 337.175781 444.347656 C 336.882812 443.386719 336.640625 442.414062 336.445312 441.429688 C 336.25 440.445312 336.101562 439.457031 336.003906 438.457031 C 335.90625 437.457031 335.855469 436.457031 335.855469 435.453125 C 335.855469 434.449219 335.90625 433.449219 336.003906 432.449219 C 336.101562 431.453125 336.25 430.460938 336.445312 429.476562 C 336.640625 428.492188 336.882812 427.519531 337.175781 426.558594 C 337.464844 425.601562 337.804688 424.65625 338.1875 423.730469 C 338.570312 422.800781 339 421.894531 339.472656 421.011719 C 339.945312 420.125 340.460938 419.265625 341.019531 418.433594 C 341.578125 417.597656 342.175781 416.792969 342.808594 416.015625 C 343.445312 415.242188 344.121094 414.5 344.828125 413.789062 C 345.539062 413.078125 346.28125 412.40625 347.058594 411.769531 C 347.832031 411.132812 348.636719 410.535156 349.472656 409.980469 C 350.308594 409.421875 351.167969 408.90625 352.050781 408.433594 C 352.9375 407.960938 353.84375 407.53125 354.769531 407.148438 C 355.695312 406.765625 356.640625 406.425781 357.601562 406.136719 C 358.558594 405.84375 359.53125 405.601562 360.515625 405.40625 C 361.5 405.207031 362.492188 405.0625 363.492188 404.964844 C 364.488281 404.863281 365.492188 404.816406 366.492188 404.816406 C 367.496094 404.816406 368.5 404.863281 369.496094 404.964844 C 370.496094 405.0625 371.488281 405.207031 372.472656 405.40625 C 373.457031 405.601562 374.425781 405.84375 375.386719 406.136719 C 376.347656 406.425781 377.292969 406.765625 378.21875 407.148438 C 379.144531 407.53125 380.050781 407.960938 380.9375 408.433594 C 381.820312 408.90625 382.679688 409.421875 383.515625 409.980469 C 384.351562 410.535156 385.15625 411.132812 385.929688 411.769531 C 386.707031 412.40625 387.449219 413.078125 388.160156 413.789062 C 388.867188 414.5 389.539062 415.242188 390.175781 416.015625 C 390.8125 416.792969 391.410156 417.597656 391.96875 418.433594 C 392.527344 419.265625 393.042969 420.125 393.515625 421.011719 C 393.988281 421.894531 394.414062 422.800781 394.800781 423.730469 C 395.183594 424.65625 395.519531 425.601562 395.8125 426.558594 C 396.105469 427.519531 396.347656 428.492188 396.542969 429.476562 C 396.738281 430.460938 396.886719 431.453125 396.984375 432.449219 C 397.082031 433.449219 397.132812 434.449219 397.132812 435.453125 Z M 397.132812 435.453125 " fill-opacity="1" fill-rule="nonzero"/><path fill="#ffffff" d="M 215.257812 435.453125 C 215.257812 436.457031 215.210938 437.457031 215.113281 438.457031 C 215.011719 439.457031 214.867188 440.445312 214.671875 441.429688 C 214.476562 442.414062 214.230469 443.386719 213.941406 444.347656 C 213.648438 445.308594 213.3125 446.25 212.925781 447.179688 C 212.542969 448.105469 212.113281 449.011719 211.640625 449.894531 C 211.167969 450.78125 210.652344 451.640625 210.097656 452.476562 C 209.539062 453.308594 208.941406 454.113281 208.304688 454.890625 C 207.667969 455.664062 206.996094 456.410156 206.285156 457.117188 C 205.578125 457.828125 204.832031 458.5 204.058594 459.136719 C 203.28125 459.773438 202.476562 460.371094 201.644531 460.929688 C 200.808594 461.484375 199.949219 462 199.0625 462.472656 C 198.179688 462.945312 197.273438 463.375 196.347656 463.757812 C 195.417969 464.144531 194.476562 464.480469 193.515625 464.773438 C 192.554688 465.0625 191.582031 465.308594 190.597656 465.503906 C 189.613281 465.699219 188.625 465.847656 187.625 465.945312 C 186.625 466.042969 185.625 466.089844 184.621094 466.089844 C 183.617188 466.089844 182.617188 466.042969 181.617188 465.945312 C 180.621094 465.847656 179.628906 465.699219 178.644531 465.503906 C 177.660156 465.308594 176.6875 465.0625 175.726562 464.773438 C 174.765625 464.480469 173.824219 464.144531 172.898438 463.757812 C 171.96875 463.375 171.0625 462.945312 170.179688 462.472656 C 169.292969 462 168.433594 461.484375 167.601562 460.929688 C 166.765625 460.371094 165.960938 459.773438 165.183594 459.136719 C 164.410156 458.5 163.667969 457.828125 162.957031 457.117188 C 162.246094 456.410156 161.574219 455.664062 160.9375 454.890625 C 160.300781 454.113281 159.703125 453.308594 159.148438 452.476562 C 158.589844 451.640625 158.074219 450.78125 157.601562 449.894531 C 157.128906 449.011719 156.699219 448.105469 156.316406 447.179688 C 155.933594 446.25 155.59375 445.308594 155.304688 444.347656 C 155.011719 443.386719 154.769531 442.414062 154.570312 441.429688 C 154.375 440.445312 154.230469 439.457031 154.132812 438.457031 C 154.03125 437.457031 153.984375 436.457031 153.984375 435.453125 C 153.984375 434.449219 154.03125 433.449219 154.132812 432.449219 C 154.230469 431.453125 154.375 430.460938 154.574219 429.476562 C 154.769531 428.492188 155.011719 427.519531 155.304688 426.558594 C 155.59375 425.601562 155.933594 424.65625 156.316406 423.730469 C 156.699219 422.800781 157.128906 421.894531 157.601562 421.011719 C 158.074219 420.125 158.589844 419.265625 159.148438 418.433594 C 159.703125 417.597656 160.300781 416.792969 160.9375 416.015625 C 161.574219 415.242188 162.246094 414.5 162.957031 413.789062 C 163.667969 413.078125 164.410156 412.40625 165.183594 411.769531 C 165.960938 411.132812 166.765625 410.535156 167.601562 409.980469 C 168.433594 409.421875 169.292969 408.90625 170.179688 408.433594 C 171.0625 407.960938 171.96875 407.53125 172.898438 407.148438 C 173.824219 406.765625 174.765625 406.425781 175.726562 406.136719 C 176.6875 405.84375 177.660156 405.601562 178.644531 405.40625 C 179.628906 405.207031 180.621094 405.0625 181.617188 404.964844 C 182.617188 404.863281 183.617188 404.816406 184.621094 404.816406 C 185.625 404.816406 186.625 404.863281 187.625 404.964844 C 188.625 405.0625 189.613281 405.207031 190.597656 405.40625 C 191.582031 405.601562 192.554688 405.84375 193.515625 406.136719 C 194.476562 406.425781 195.417969 406.765625 196.347656 407.148438 C 197.273438 407.53125 198.179688 407.960938 199.0625 408.433594 C 199.949219 408.90625 200.808594 409.421875 201.644531 409.980469 C 202.476562 410.535156 203.28125 411.132812 204.058594 411.769531 C 204.832031 412.40625 205.578125 413.078125 206.285156 413.789062 C 206.996094 414.5 207.667969 415.242188 208.304688 416.015625 C 208.941406 416.792969 209.539062 417.597656 210.097656 418.433594 C 210.652344 419.265625 211.167969 420.125 211.640625 421.011719 C 212.113281 421.894531 212.542969 422.800781 212.925781 423.730469 C 213.3125 424.65625 213.648438 425.601562 213.941406 426.558594 C 214.230469 427.519531 214.476562 428.492188 214.671875 429.476562 C 214.867188 430.460938 215.011719 431.453125 215.113281 432.449219 C 215.210938 433.449219 215.257812 434.449219 215.257812 435.453125 Z M 215.257812 435.453125 " fill-opacity="1" fill-rule="nonzero"/><path fill="#ffffff" d="M 328.363281 311.167969 C 304 311.167969 284.25 330.929688 284.25 355.296875 C 284.25 363.328125 286.308594 371.542969 290.957031 378.183594 C 294.226562 382.851562 297.207031 387.640625 297.207031 393.535156 C 297.207031 405.660156 287.382812 415.480469 275.261719 415.480469 C 263.136719 415.480469 253.316406 405.660156 253.316406 393.535156 C 253.316406 387.640625 256.304688 382.851562 259.574219 378.183594 C 264.21875 371.542969 266.273438 363.328125 266.273438 355.296875 C 266.273438 330.929688 246.519531 311.167969 222.160156 311.167969 C 197.796875 311.167969 178.027344 330.929688 178.027344 355.296875 C 178.027344 355.683594 178.027344 356.066406 178.046875 356.449219 C 178.171875 361.136719 179.023438 365.78125 180.605469 370.191406 C 182.140625 374.457031 184.324219 378.472656 187.074219 382.066406 C 189.804688 385.628906 193.074219 388.78125 196.746094 391.371094 C 197.492188 391.898438 198.269531 392.40625 199.042969 392.882812 C 199.832031 393.375 200.636719 393.832031 201.449219 394.265625 C 201.59375 394.339844 201.726562 394.410156 201.863281 394.484375 C 201.949219 394.523438 202.035156 394.570312 202.109375 394.609375 C 204.039062 395.597656 206.03125 396.460938 208.082031 397.167969 C 213.753906 399.132812 219.207031 399.246094 225.148438 398.949219 C 230.527344 398.683594 235.671875 399.46875 239.714844 403.292969 C 243.203125 406.609375 245.199219 411.457031 244.929688 416.269531 C 244.660156 421.164062 241.660156 424.875 239.015625 428.753906 C 234.292969 435.695312 231.503906 443.65625 231.1875 452.070312 C 231.167969 452.589844 231.148438 453.085938 231.148438 453.605469 C 231.128906 453.84375 231.128906 454.101562 231.128906 454.34375 C 231.128906 478.714844 250.871094 498.472656 275.242188 498.472656 L 275.28125 498.472656 C 299.648438 498.472656 319.390625 478.714844 319.390625 454.34375 C 319.390625 454.101562 319.390625 453.84375 319.371094 453.605469 C 319.371094 453.085938 319.355469 452.589844 319.335938 452.070312 C 319.027344 443.65625 316.238281 435.695312 311.515625 428.753906 C 308.871094 424.875 305.871094 421.164062 305.601562 416.269531 C 305.332031 411.457031 307.328125 406.609375 310.816406 403.292969 C 314.847656 399.46875 320.003906 398.683594 325.382812 398.949219 C 331.324219 399.246094 336.777344 399.132812 342.449219 397.167969 C 344.492188 396.460938 346.484375 395.597656 348.410156 394.609375 C 348.496094 394.570312 348.582031 394.523438 348.660156 394.484375 C 348.804688 394.410156 348.9375 394.339844 349.070312 394.265625 C 349.894531 393.832031 350.691406 393.375 351.488281 392.882812 C 352.261719 392.40625 353.03125 391.898438 353.785156 391.371094 C 357.449219 388.78125 360.726562 385.628906 363.445312 382.066406 C 366.195312 378.472656 368.390625 374.457031 369.914062 370.191406 C 371.496094 365.78125 372.359375 361.136719 372.484375 356.449219 C 372.492188 356.066406 372.492188 355.683594 372.492188 355.296875 C 372.492188 330.929688 352.75 311.167969 328.363281 311.167969 Z M 232.460938 443.570312 C 233.121094 440.839844 234.0625 438.214844 235.261719 435.703125 C 234.082031 438.214844 233.140625 440.839844 232.460938 443.570312 Z M 318.058594 443.570312 C 317.378906 440.839844 316.441406 438.214844 315.261719 435.703125 C 316.460938 438.214844 317.398438 440.839844 318.058594 443.570312 Z M 318.058594 443.570312 " fill-opacity="1" fill-rule="nonzero"/><g fill="#ffffff" fill-opacity="1"><g transform="translate(420.52495, 489.631855)"><g><path d="M 94.90625 -183 C 117.90625 -183 136.8125 -178.335938 151.625 -169.015625 C 166.445312 -159.691406 174.03125 -145.878906 174.375 -127.578125 L 174.375 -124.4375 L 120.265625 -124.4375 L 120.265625 -125.484375 C 120.265625 -130.710938 118.347656 -135.070312 114.515625 -138.5625 C 110.679688 -142.050781 104.84375 -143.796875 97 -143.796875 C 89.320312 -143.796875 83.4375 -142.660156 79.34375 -140.390625 C 75.25 -138.128906 73.203125 -135.34375 73.203125 -132.03125 C 73.203125 -127.320312 75.988281 -123.832031 81.5625 -121.5625 C 87.144531 -119.300781 96.125 -116.953125 108.5 -114.515625 C 122.96875 -111.546875 134.863281 -108.445312 144.1875 -105.21875 C 153.507812 -102 161.65625 -96.726562 168.625 -89.40625 C 175.59375 -82.09375 179.164062 -72.160156 179.34375 -59.609375 C 179.34375 -38.347656 172.148438 -22.570312 157.765625 -12.28125 C 143.390625 -2 124.175781 3.140625 100.125 3.140625 C 72.070312 3.140625 50.242188 -1.5625 34.640625 -10.96875 C 19.035156 -20.382812 11.234375 -37.035156 11.234375 -60.921875 L 65.875 -60.921875 C 65.875 -51.847656 68.226562 -45.785156 72.9375 -42.734375 C 77.644531 -39.691406 84.96875 -38.171875 94.90625 -38.171875 C 102.21875 -38.171875 108.269531 -38.953125 113.0625 -40.515625 C 117.863281 -42.085938 120.265625 -45.316406 120.265625 -50.203125 C 120.265625 -54.554688 117.601562 -57.820312 112.28125 -60 C 106.96875 -62.175781 98.300781 -64.484375 86.28125 -66.921875 C 71.632812 -70.066406 59.519531 -73.335938 49.9375 -76.734375 C 40.351562 -80.128906 31.988281 -85.75 24.84375 -93.59375 C 17.695312 -101.4375 14.125 -112.066406 14.125 -125.484375 C 14.125 -145.179688 21.75 -159.691406 37 -169.015625 C 52.25 -178.335938 71.550781 -183 94.90625 -183 Z M 94.90625 -183 "/></g></g></g><g fill="#ffffff" fill-opacity="1"><g transform="translate(589.673674, 489.631855)"><g><path d="M 87.0625 -141.171875 C 111.289062 -141.171875 130.332031 -135.023438 144.1875 -122.734375 C 158.039062 -110.453125 164.96875 -92.546875 164.96875 -69.015625 C 164.96875 -45.484375 158.039062 -27.570312 144.1875 -15.28125 C 130.332031 -3 111.289062 3.140625 87.0625 3.140625 C 62.832031 3.140625 43.832031 -2.957031 30.0625 -15.15625 C 16.289062 -27.363281 9.40625 -45.316406 9.40625 -69.015625 C 9.40625 -92.722656 16.289062 -110.675781 30.0625 -122.875 C 43.832031 -135.070312 62.832031 -141.171875 87.0625 -141.171875 Z M 87.0625 -105.875 C 69.976562 -105.875 61.4375 -96.03125 61.4375 -76.34375 L 61.4375 -61.4375 C 61.4375 -41.914062 69.976562 -32.15625 87.0625 -32.15625 C 104.3125 -32.15625 112.9375 -41.914062 112.9375 -61.4375 L 112.9375 -76.34375 C 112.9375 -96.03125 104.3125 -105.875 87.0625 -105.875 Z M 87.0625 -105.875 "/></g></g></g><g fill="#ffffff" fill-opacity="1"><g transform="translate(744.443406, 489.631855)"><g><path d="M 17.515625 0 L 17.515625 -189.546875 L 69.546875 -189.546875 L 69.546875 0 Z M 17.515625 0 "/></g></g></g><g fill="#ffffff" fill-opacity="1"><g transform="translate(811.893467, 489.631855)"><g><path d="M 87.0625 -141.171875 C 109.71875 -141.171875 128.0625 -136.332031 142.09375 -126.65625 C 156.125 -116.988281 163.140625 -102.222656 163.140625 -82.359375 L 112.671875 -82.359375 C 112.671875 -98.035156 104.132812 -105.875 87.0625 -105.875 C 69.976562 -105.875 61.4375 -96.03125 61.4375 -76.34375 L 61.4375 -61.4375 C 61.4375 -41.914062 70.328125 -32.15625 88.109375 -32.15625 C 105.878906 -32.15625 114.765625 -40.171875 114.765625 -56.203125 L 163.140625 -56.203125 C 163.140625 -36.160156 156.125 -21.257812 142.09375 -11.5 C 128.0625 -1.738281 109.71875 3.140625 87.0625 3.140625 C 62.832031 3.140625 43.832031 -2.957031 30.0625 -15.15625 C 16.289062 -27.363281 9.40625 -45.316406 9.40625 -69.015625 C 9.40625 -92.722656 16.289062 -110.675781 30.0625 -122.875 C 43.832031 -135.070312 62.832031 -141.171875 87.0625 -141.171875 Z M 87.0625 -141.171875 "/></g></g></g><g fill="#ffffff" fill-opacity="1"><g transform="translate(966.663226, 489.631855)"><g><path d="M 87.0625 -141.171875 C 111.289062 -141.171875 130.332031 -135.023438 144.1875 -122.734375 C 158.039062 -110.453125 164.96875 -92.546875 164.96875 -69.015625 C 164.96875 -45.484375 158.039062 -27.570312 144.1875 -15.28125 C 130.332031 -3 111.289062 3.140625 87.0625 3.140625 C 62.832031 3.140625 43.832031 -2.957031 30.0625 -15.15625 C 16.289062 -27.363281 9.40625 -45.316406 9.40625 -69.015625 C 9.40625 -92.722656 16.289062 -110.675781 30.0625 -122.875 C 43.832031 -135.070312 62.832031 -141.171875 87.0625 -141.171875 Z M 87.0625 -105.875 C 69.976562 -105.875 61.4375 -96.03125 61.4375 -76.34375 L 61.4375 -61.4375 C 61.4375 -41.914062 69.976562 -32.15625 87.0625 -32.15625 C 104.3125 -32.15625 112.9375 -41.914062 112.9375 -61.4375 L 112.9375 -76.34375 C 112.9375 -96.03125 104.3125 -105.875 87.0625 -105.875 Z M 87.0625 -105.875 "/></g></g></g><g fill="#ffffff" fill-opacity="1"><g transform="translate(1121.432958, 489.631855)"><g><path d="M 83.921875 -141.171875 C 105.015625 -141.171875 122.179688 -137.640625 135.421875 -130.578125 C 148.671875 -123.523438 155.296875 -112.066406 155.296875 -96.203125 L 155.296875 -42.359375 C 155.296875 -39.390625 155.992188 -36.945312 157.390625 -35.03125 C 158.785156 -33.113281 160.875 -32.15625 163.65625 -32.15625 L 173.078125 -32.15625 L 173.078125 -2.09375 C 172.546875 -1.738281 171.191406 -1.171875 169.015625 -0.390625 C 166.835938 0.390625 163.742188 1.171875 159.734375 1.953125 C 155.722656 2.742188 151.101562 3.140625 145.875 3.140625 C 135.769531 3.140625 127.445312 1.613281 120.90625 -1.4375 C 114.375 -4.488281 109.890625 -8.71875 107.453125 -14.125 C 100.828125 -8.894531 93.414062 -4.707031 85.21875 -1.5625 C 77.03125 1.570312 67.445312 3.140625 56.46875 3.140625 C 24.050781 3.140625 7.84375 -9.757812 7.84375 -35.5625 C 7.84375 -48.976562 11.457031 -59.210938 18.6875 -66.265625 C 25.925781 -73.328125 36.34375 -78.164062 49.9375 -80.78125 C 63.53125 -83.394531 81.304688 -84.703125 103.265625 -84.703125 L 103.265625 -91.5 C 103.265625 -96.90625 101.390625 -101 97.640625 -103.78125 C 93.898438 -106.570312 89.066406 -107.96875 83.140625 -107.96875 C 77.734375 -107.96875 73.066406 -107.007812 69.140625 -105.09375 C 65.222656 -103.175781 63.265625 -100.128906 63.265625 -95.953125 L 63.265625 -94.90625 L 12.03125 -94.90625 C 11.851562 -95.769531 11.765625 -96.988281 11.765625 -98.5625 C 11.765625 -111.632812 17.992188 -122.003906 30.453125 -129.671875 C 42.921875 -137.335938 60.742188 -141.171875 83.921875 -141.171875 Z M 103.265625 -60.125 C 88.453125 -60.125 77.515625 -58.507812 70.453125 -55.28125 C 63.398438 -52.0625 59.875 -47.753906 59.875 -42.359375 C 59.875 -33.640625 65.796875 -29.28125 77.640625 -29.28125 C 84.441406 -29.28125 90.410156 -31.109375 95.546875 -34.765625 C 100.691406 -38.429688 103.265625 -42.960938 103.265625 -48.359375 Z M 103.265625 -60.125 "/></g></g></g></svg>