<?xml version="1.0" encoding="UTF-8"?><svg id="Layer_2" xmlns="http://www.w3.org/2000/svg" viewBox="0 0 1390 430.58"><defs><style>.cls-1{fill:#fff;stroke-width:0px;}</style></defs><g id="Layer_3"><path class="cls-1" d="M287.83,216.81l35.11,20.28v57.64l-137,79.31-137-79.31v-158.87L185.93,56.54l136.93,79.27,48.91-28.21L185.93,0,0,107.65v215.29l185.93,107.65,185.93-107.65v-154.64l-84.04,48.51Z"/><path class="cls-1" d="M504.87,119.53h44.09v20.98c0,17.54-1.97,25.9-7.7,33.6-7.7,10.16-18.85,14.43-38.03,14.43-18.03,0-29.18-4.26-36.88-13.93-5.9-7.38-8.03-16.56-8.03-33.27v-26.06c0-18.19,2.62-27.7,9.83-35.24,8.03-8.52,18.2-11.97,34.91-11.97,18.03,0,29.34,4.43,36.23,14.1,4.26,5.9,6.06,11.8,6.56,22.46l-26.72,1.8c-1.31-10.65-5.74-14.92-15.74-14.92-12.46,0-15.9,5.57-15.9,26.06v21.47c0,20.49,3.44,26.06,16.06,26.06s16.56-4.92,16.56-18.19v-5.25h-15.25v-22.13Z"/><path class="cls-1" d="M582.4,69.53h29.18v117.04h-29.18v-117.04Z"/><path class="cls-1" d="M689.6,119.53h44.09v20.98c0,17.54-1.97,25.9-7.7,33.6-7.7,10.16-18.85,14.43-38.03,14.43-18.03,0-29.18-4.26-36.88-13.93-5.9-7.38-8.03-16.56-8.03-33.27v-26.06c0-18.19,2.62-27.7,9.83-35.24,8.03-8.52,18.2-11.97,34.91-11.97,18.03,0,29.34,4.43,36.23,14.1,4.26,5.9,6.06,11.8,6.56,22.46l-26.72,1.8c-1.31-10.65-5.74-14.92-15.74-14.92-12.46,0-15.9,5.57-15.9,26.06v21.47c0,20.49,3.44,26.06,16.06,26.06s16.56-4.92,16.56-18.19v-5.25h-15.25v-22.13Z"/><path class="cls-1" d="M787.78,165.91l-6.23,20.65h-31.47l42.13-117.04h28.36l42.29,117.04h-31.47l-6.23-20.65h-37.37ZM806.63,103.3l-11.97,39.5h23.6l-11.64-39.5Z"/><path class="cls-1" d="M895.47,152.8c5.25,9.02,12.13,12.46,24.59,12.46,10.33,0,15.24-3.77,15.24-11.64,0-6.23-3.28-9.51-11.8-11.64-20.49-5.08-24.75-6.56-30.98-10.49-9.34-6.06-13.6-14.75-13.6-28.03,0-23.44,14.26-35.9,40.98-35.9,20.16,0,32.95,6.56,40.98,20.65l-21.47,13.6c-5.74-8.03-11.15-10.98-20-10.98-8.2,0-12.62,3.77-12.62,10.65,0,7.87,4.43,11.15,20.16,15.08,14.92,3.77,18.52,5.08,24.42,8.85,8.03,5.25,11.8,13.77,11.8,26.88s-3.11,21.15-9.83,26.88c-7.38,6.23-19.02,9.51-33.6,9.51-13.44,0-25.9-2.95-34.1-8.36-5.41-3.44-8.69-6.89-12.29-13.44l22.13-14.1Z"/><path class="cls-1" d="M1073.48,153.29c-.66,11.64-2.95,17.87-8.69,24.1-7.21,7.54-18.36,11.15-34.91,11.15-17.7,0-28.36-4.1-36.06-13.93-5.74-7.38-7.87-16.39-7.87-33.27v-26.06c0-18.19,2.62-27.7,9.67-35.24,7.7-8.52,17.7-11.97,34.1-11.97,17.54,0,28.52,4.43,35.41,14.1,4.1,5.9,5.74,11.8,6.23,22.46l-26.72,1.8c-1.15-10.65-5.25-14.92-14.59-14.92-11.64,0-14.92,5.57-14.92,26.06v21.47c0,20.49,3.11,26.06,14.92,26.06,10.33,0,14.92-4.26,16.23-15.08l27.21,3.28Z"/><path class="cls-1" d="M1123.15,165.91l-6.23,20.65h-31.47l42.13-117.04h28.36l42.29,117.04h-31.47l-6.23-20.65h-37.37ZM1142,103.3l-11.97,39.5h23.6l-11.64-39.5Z"/><path class="cls-1" d="M1215.6,69.53h29.18v93.43h47.37v23.6h-76.55v-117.04Z"/><path class="cls-1" d="M1313.29,69.53h75.73v23.6h-46.88v22.62h39.5v23.6h-39.5v23.6h47.86v23.6h-76.71v-117.04Z"/><path class="cls-1" d="M540.6,315.6c-1.15,18.52-14.92,29.01-38.03,29.01-14.92,0-25.41-4.75-32.13-14.75-5.08-7.54-7.05-16.72-7.05-33.11v-24.1c0-17.87,2.46-27.54,8.69-35.24,7.05-8.69,16.72-12.62,30.65-12.62,22.46,0,35.73,10.65,36.72,29.5l-12.46.98c-1.64-12.29-10.33-19.02-24.1-19.02-18.36,0-25.9,10.66-25.9,37.05v22.62c0,26.72,7.38,37.21,26.06,37.21,14.1,0,23.11-6.89,24.92-19.02l12.62,1.48Z"/><path class="cls-1" d="M579.12,317.57l-8.85,25.57h-14.75l42.78-117.04h12.95l42.78,117.04h-14.75l-8.85-25.57h-51.31ZM604.86,243.48l-22.13,62.78h44.26l-22.13-62.78Z"/><path class="cls-1" d="M686.65,343.14h-13.6v-117.04h37.7c14.59,0,22.79,2.62,29.01,9.34,5.9,6.23,8.52,14.43,8.52,26.39,0,12.79-3.11,21.64-10,27.87-6.06,5.57-14.1,7.87-27.54,7.87h-24.1v45.57ZM710.74,286.26c16.39,0,23.93-7.7,23.93-24.42s-7.54-24.42-23.93-24.42h-24.26v48.85h24.26Z"/><path class="cls-1" d="M776.47,226.11h13.6v117.04h-13.6v-117.04Z"/><path class="cls-1" d="M847.77,237.58h-33.77v-11.47h80.81v11.47h-33.44v105.56h-13.6v-105.56Z"/><path class="cls-1" d="M917.1,317.57l-8.85,25.57h-14.75l42.78-117.04h12.95l42.78,117.04h-14.75l-8.85-25.57h-51.31ZM942.84,243.48l-22.13,62.78h44.26l-22.13-62.78Z"/><path class="cls-1" d="M1014.14,226.11h13.6v105.56h55.08v11.47h-68.68v-117.04Z"/></g></svg>